<?xml version="1.0" encoding="UTF-8"?>
<svg width="100px" height="100px" viewBox="0 0 100 100" version="1.1" xmlns="http://www.w3.org/2000/svg" xmlns:xlink="http://www.w3.org/1999/xlink">
    <!-- Generator: Sketch 52.6 (67491) - http://www.bohemiancoding.com/sketch -->
    <title>ANA-Thin</title>
    <desc>Created with Sketch.</desc>
    <g id="Page-1" stroke="none" stroke-width="1" fill="none" fill-rule="evenodd">
        <g id="nowfloats.com---Nov-2019---mobile" transform="translate(-110.000000, -2108.000000)" fill="#8DC63F" fill-rule="nonzero">
            <g id="ANA-Thin" transform="translate(110.000000, 2108.000000)">
                <path d="M49.7191011,0 C22.2599998,-1.68138503e-15 3.36277005e-15,22.2599998 0,49.7191011 C-3.36277005e-15,77.1782024 22.2599998,99.4382022 49.7191011,99.4382022 C77.1782024,99.4382022 99.4382022,77.1782024 99.4382022,49.7191011 C99.4382022,36.5327756 94.1999548,23.8865277 84.8758147,14.5623876 C75.5516745,5.2382474 62.9054266,8.07429564e-16 49.7191011,0 Z M25.9213483,72.494382 C23.4174195,71.5685069 21.4189817,69.6312458 20.4157303,67.1573034 C19.4195511,64.6907859 19.5508914,61.9121188 20.7752809,59.5505618 C21.8039085,57.4470729 23.5204764,55.7582555 25.6404494,54.7640449 C27.6286618,53.8835642 29.7089634,53.227817 31.8426966,52.8089888 C36.6516854,51.6853933 40.8314607,50.752809 41.3820225,44.8764045 L41.3820225,35.741573 C41.3820225,35.3568353 41.693914,35.0449438 42.0786517,35.0449438 C42.4633894,35.0449438 42.7752809,35.3568353 42.7752809,35.741573 L42.7752809,44.9438202 C42.7752809,44.9438202 42.7752809,44.9438202 42.7752809,44.9438202 C42.7752809,44.9438202 42.7752809,44.9438202 42.7752809,44.9438202 C42.1011236,51.8426966 37.0561798,53 32.1685393,54.1123596 C30.1397338,54.4940506 28.1607852,55.1046976 26.2696629,55.9325843 C24.4151926,56.775142 22.9158414,58.2426767 22.0337079,60.0786517 C20.9756165,62.090271 20.8564386,64.4656081 21.7078652,66.5730337 C22.5780192,68.6757834 24.2772975,70.3262786 26.4044944,71.1348315 C27.7782193,71.6155568 29.2867079,71.5304059 30.5976069,70.8981395 C31.908506,70.2658731 32.9142525,69.1383704 33.3932584,67.7640449 C34.1748941,65.561433 33.0300504,63.1411933 30.8314607,62.3483146 C30.0194822,62.0564653 29.1247353,62.0997791 28.3447437,62.468694 C27.5647521,62.837609 26.9636576,63.5017878 26.6741573,64.3146067 C26.6166762,64.5781522 26.4122164,64.7848277 26.1493057,64.8451459 C25.886395,64.9054641 25.6122918,64.8085828 25.4456784,64.5964501 C25.2790651,64.3843173 25.2498904,64.0950641 25.3707865,63.8539326 C26.2329766,61.4455919 28.8815053,60.1891741 31.2921348,61.0449438 C34.2077896,62.1008614 35.716506,65.3194565 34.6629213,68.2359551 C34.0564684,69.9492648 32.7902206,71.3490146 31.1460674,72.1235955 C29.5016836,72.9069512 27.6122769,73.0000055 25.8988764,72.3820225 L25.9213483,72.494382 Z M41.1910112,25.5955056 C41.1864679,24.739108 41.699455,23.9647161 42.4898023,23.6348847 C43.2801495,23.3050533 44.1914317,23.4850625 44.7970048,24.0906356 C45.4025779,24.6962087 45.5825871,25.6074909 45.2527557,26.3978382 C44.9229243,27.1881854 44.1485325,27.7011725 43.2921348,27.6966292 C42.1342702,27.6904866 41.1971539,26.7533702 41.1910112,25.5955056 Z M47.6741573,76.8314607 C47.6742484,82.0718177 43.4425131,86.3286522 38.2022472,86.3595506 C33.9211344,86.378271 30.4303373,82.9326786 30.3932584,78.6516854 C30.3994561,75.1499968 33.2398789,72.3146013 36.741573,72.3146067 C39.6209003,72.3146067 41.9550562,74.6487627 41.9550562,77.5280899 C41.9488621,79.9065923 40.0189599,81.8314687 37.6404494,81.8314607 C37.4567329,81.8344728 37.2795,81.7635939 37.1485234,81.6347298 C37.0175467,81.5058657 36.9437955,81.3298086 36.9438202,81.1460674 C36.9438202,80.7613297 37.2557117,80.4494382 37.6404494,80.4494382 C38.4152392,80.4494382 39.1582956,80.1416542 39.7061546,79.5937951 C40.2540137,79.045936 40.5617978,78.3028796 40.5617978,77.5280899 C40.5618068,75.4164127 38.8532411,73.7028218 36.741573,73.6966292 C34.0031476,73.6966222 31.7814764,75.9132669 31.7752809,78.6516854 C31.8123345,82.1676119 34.686214,84.9912488 38.2022472,84.9662921 C42.6968117,84.9662964 46.3421152,81.3260209 46.3483146,76.8314607 L46.3483146,63.0224719 C45.1387371,64.549927 43.296697,65.4399015 41.3483146,65.4382022 C38.4529348,65.4320221 36.1073037,63.0863911 36.1011236,60.1910112 C36.1072984,57.7982712 38.0454622,55.8601074 40.4382022,55.8539326 C42.4301506,55.8539326 44.0449438,57.4687258 44.0449438,59.4606742 C44.0449553,61.1317666 42.6935529,62.4881928 41.0224719,62.494382 C40.6377342,62.494382 40.3258427,62.1824905 40.3258427,61.7977528 C40.3258427,61.4130151 40.6377342,61.1011236 41.0224719,61.1011236 C41.4575462,61.1011236 41.8748009,60.928291 42.1824448,60.6206471 C42.4900888,60.3130031 42.6629213,59.8957484 42.6629213,59.4606742 C42.6629213,58.2195848 41.6568197,57.2134831 40.4157303,57.2134831 C38.7899033,57.2134831 37.4719101,58.5314764 37.4719101,60.1573034 C37.4594062,62.283297 39.1662477,64.0202593 41.2921348,64.0449438 C44.0509952,64.0387649 46.2859559,61.8038041 46.2921348,59.0449438 L46.2921348,39.3820225 C46.2891227,39.198306 46.3600016,39.021073 46.4888657,38.8900964 C46.6177298,38.7591198 46.7937869,38.6853686 46.9775281,38.6853933 C47.3622658,38.6853933 47.6741573,38.9972848 47.6741573,39.3820225 L47.6741573,76.8314607 Z M61.2921348,86.3595506 C56.0299161,86.3595506 51.7640449,82.0936794 51.7640449,76.8314607 L51.7640449,39.3820225 C51.7640449,38.9972848 52.0759365,38.6853933 52.4606742,38.6853933 C52.6444154,38.6853686 52.8204725,38.7591198 52.9493365,38.8900964 C53.0782006,39.021073 53.1490796,39.198306 53.1460674,39.3820225 L53.1460674,59.0561798 C53.1584126,61.8106512 55.3915752,64.0387955 58.1460674,64.0449438 C60.2763518,64.0387511 62.000009,62.3100687 62,60.1797753 C61.9633621,58.5803355 60.6560391,57.3029512 59.0561798,57.3033708 C57.8150904,57.3033708 56.8089888,58.3094725 56.8089888,59.5505618 C56.8562339,60.4126654 57.5636333,61.0905898 58.4269663,61.1011236 C58.811704,61.1011236 59.1235955,61.4130151 59.1235955,61.7977528 C59.1235955,62.1824905 58.811704,62.494382 58.4269663,62.494382 C56.7558853,62.4881928 55.4044829,61.1317666 55.4044944,59.4606742 C55.4044944,57.4687258 57.0192876,55.8539326 59.011236,55.8539326 C61.403976,55.8601074 63.3421398,57.7982712 63.3483146,60.1910112 C63.3421345,63.0863911 60.9965034,65.4320221 58.1011236,65.4382022 C56.1527412,65.4399015 54.3107011,64.549927 53.1011236,63.0224719 L53.1011236,76.8314607 C53.107323,81.3260209 56.7526265,84.9662964 61.247191,84.9662921 C64.7588517,84.9850353 67.6258758,82.1632007 67.6629213,78.6516854 C67.6567258,75.9132669 65.4350547,73.6966222 62.6966292,73.6966292 C60.5849612,73.7028218 58.8763954,75.4164127 58.8764045,77.5280899 C58.8764045,79.141506 60.1843367,80.4494382 61.7977528,80.4494382 C62.1824905,80.4494382 62.494382,80.7613297 62.494382,81.1460674 C62.4944067,81.3298086 62.4206555,81.5058657 62.2896789,81.6347298 C62.1587023,81.7635939 61.9814693,81.8344728 61.7977528,81.8314607 C59.4192423,81.8314687 57.4893401,79.9065923 57.4831461,77.5280899 C57.4831461,74.6487627 59.817302,72.3146067 62.6966292,72.3146067 C66.1983233,72.3146013 69.0387461,75.1499968 69.0449438,78.6516854 C69.0080314,82.9107588 65.5513509,86.3474006 61.2921348,86.3595506 Z M52.3033708,25.5955056 C52.2988208,24.7401282 52.8105859,23.9664435 53.5995495,23.6359472 C54.388513,23.3054509 55.2989133,23.4833914 55.9053758,24.0866281 C56.5118384,24.6898648 56.6946318,25.5993031 56.368348,26.3900181 C56.0420642,27.180733 55.2711199,27.6966171 54.4157303,27.6966292 C53.8496951,27.7086826 53.3025132,27.493008 52.8969289,27.0979858 C52.4913447,26.7029637 52.2613102,26.1616618 52.258427,25.5955056 L52.3033708,25.5955056 Z M79.0674157,67.1685393 C78.0641644,69.6424817 76.0657266,71.5797429 73.5617978,72.505618 C71.8483972,73.123601 69.9589906,73.0305467 68.3146067,72.247191 C66.6704535,71.4726101 65.4042058,70.0728603 64.7977528,68.3595506 C63.7441681,65.443052 65.2528846,62.2244569 68.1685393,61.1685393 C70.5791688,60.3127696 73.2276976,61.5691875 74.0898876,63.9775281 C74.2107838,64.2186596 74.1816091,64.5079128 74.0149957,64.7200456 C73.8483824,64.9321783 73.5742791,65.0290596 73.3113684,64.9687414 C73.0484578,64.9084232 72.8439979,64.7017478 72.7865169,64.4382022 C72.4970166,63.6253833 71.8959221,62.9612045 71.1159305,62.5922895 C70.3359389,62.2233746 69.441192,62.1800608 68.6292135,62.4719101 C66.4306237,63.2647888 65.28578,65.6850285 66.0674157,67.8876404 C66.5438934,69.2638188 67.5493057,70.3932844 68.8610339,71.0259507 C70.1727622,71.6586171 71.6825788,71.7422844 73.0561798,71.258427 C75.1833767,70.4498741 76.882655,68.799379 77.752809,66.6966292 C78.6042355,64.5892036 78.4850577,62.2138665 77.4269663,60.2022472 C76.5448327,58.3662722 75.0454815,56.8987375 73.1910112,56.0561798 C71.2998889,55.2282931 69.3209403,54.6176461 67.2921348,54.2359551 C62.4044944,53.1123596 57.3595506,51.988764 56.6853933,45.0674157 C56.6853933,45.0674157 56.6853933,45.0674157 56.6853933,45.0674157 C56.6853933,45.0674157 56.6853933,45.0674157 56.6853933,45.0674157 L56.6853933,35.741573 C56.6853933,35.3568353 56.9972848,35.0449438 57.3820225,35.0449438 C57.7667602,35.0449438 58.0786517,35.3568353 58.0786517,35.741573 L58.0786517,44.9438202 C58.6629213,50.8202247 62.8089888,51.7752809 67.6179775,52.8764045 C69.7503651,53.2843971 71.8306266,53.9288259 73.8202247,54.7977528 C75.9221323,55.789658 77.6254182,57.465216 78.6516854,59.5505618 C79.8797262,61.9104557 80.0151727,64.6891607 79.0224719,67.1573034 L79.0674157,67.1685393 Z M72.8651685,50.3146067 C66.5399742,50.3332589 61.3955638,45.2240497 61.3707865,38.8988764 L61.3707865,24.6292135 C61.3461465,18.2043992 56.1439154,13.0021681 49.7191011,12.9775281 C43.2942869,13.0021681 38.0920557,18.2043992 38.0674157,24.6292135 L38.0674157,38.8988764 C38.0612219,45.2196592 32.9387603,50.3421208 26.6179775,50.3483146 C21.4824344,50.3421235 17.3207979,46.180487 17.3146067,41.0449438 C17.3208057,36.8606559 20.7145839,33.4719055 24.8988764,33.4719101 C26.5438146,33.4719101 28.1213805,34.1253593 29.2845275,35.2885063 C30.4476744,36.4516532 31.1011236,38.0292191 31.1011236,39.6741573 C31.0949442,42.4888665 28.8147092,44.7691015 26,44.7752809 C25.6152623,44.7752809 25.3033708,44.4633894 25.3033708,44.0786517 C25.3033708,43.693914 25.6152623,43.3820225 26,43.3820225 C28.0477974,43.3820225 29.7078652,41.7219547 29.7078652,39.6741573 C29.7138377,38.3938099 29.210174,37.1636917 28.3079893,36.2551832 C27.4058045,35.3466747 26.1792343,34.8344313 24.8988764,34.8314607 C21.4796753,34.8314607 18.7078652,37.6032708 18.7078652,41.0224719 C18.7078652,45.3662845 22.2292211,48.8876404 26.5730337,48.8876404 C29.2549982,48.8876404 31.8271164,47.8222342 33.7235517,45.9257989 C35.619987,44.0293636 36.6853933,41.4572454 36.6853933,38.7752809 L36.6853933,24.6292135 C36.7039179,17.4385826 42.5284702,11.6140303 49.7191011,11.5955056 C56.9097321,11.6140303 62.7342843,17.4385826 62.752809,24.6292135 L62.752809,38.8988764 C62.752809,44.4837784 67.2802666,49.011236 72.8651685,49.011236 C77.2089812,49.011236 80.7303371,45.4898801 80.7303371,41.1460674 C80.7635487,39.4828003 80.1259745,37.8761531 78.9613155,36.6882432 C77.7966565,35.5003333 76.2029245,34.8311291 74.5393258,34.8314607 C71.8815782,34.8376559 69.7303299,36.9939305 69.7303371,39.6516854 C69.7303371,41.6994828 71.3904049,43.3595506 73.4382022,43.3595506 C73.8229399,43.3595506 74.1348315,43.6714421 74.1348315,44.0561798 C74.1348315,44.4409175 73.8229399,44.752809 73.4382022,44.752809 C70.623493,44.7466296 68.3432581,42.4663946 68.3370787,39.6516854 C68.3370787,36.2262789 71.1139193,33.4494382 74.5393258,33.4494382 C78.7236183,33.4494336 82.1173966,36.838184 82.1235955,41.0224719 C82.1265773,43.4928598 81.1480782,45.8632513 79.4033574,47.6121864 C77.6586365,49.3611216 75.2906126,50.3453364 72.8202247,50.3483146 L72.8651685,50.3146067 Z" id="Shape"></path>
            </g>
        </g>
    </g>
</svg>