<?xml version="1.0" encoding="UTF-8"?>
<svg width="110px" height="93px" viewBox="0 0 110 93" version="1.1" xmlns="http://www.w3.org/2000/svg" xmlns:xlink="http://www.w3.org/1999/xlink">
    <!-- Generator: Sketch 52.6 (67491) - http://www.bohemiancoding.com/sketch -->
    <title>keyboard color</title>
    <desc>Created with Sketch.</desc>
    <g id="Page-1" stroke="none" stroke-width="1" fill="none" fill-rule="evenodd">
        <g id="nowfloats.com---Nov-2019---mobile" transform="translate(-105.000000, -1817.000000)">
            <g id="keyboard-color" transform="translate(105.000000, 1817.000000)">
                <path d="M101.547324,35.4503366 L8.1462524,35.4503366 C3.6544558,35.4503366 0,39.1045777 0,43.596589 L0,83.8984454 C0,88.390242 3.6544558,92.0446978 8.1462524,92.0446978 L101.547324,92.0446978 C106.03912,92.0446978 109.693576,88.390242 109.693576,83.8984454 L109.693576,43.596589 C109.693576,39.1045777 106.039335,35.4503366 101.547324,35.4503366 Z" id="Path" fill="#E0E0E0" fill-rule="nonzero"></path>
                <path d="M101.547324,86.14482 L8.1462524,86.14482 C3.6544558,86.14482 0,83.0565166 0,79.2605943 L0,85.4691345 C0,89.2650569 3.6544558,92.3533602 8.1462524,92.3533602 L101.547324,92.3533602 C106.03912,92.3533602 109.693576,89.2650569 109.693576,85.4691345 L109.693576,79.2605943 C109.693576,83.0565166 106.039335,86.14482 101.547324,86.14482 Z" id="Path" fill="#C4C4C4" fill-rule="nonzero"></path>
                <g id="Group" transform="translate(9.876327, 45.688009)" fill="#67676B" fill-rule="nonzero">
                    <g id="Path">
                        <path d="M7.80809554,3.26799082 L1.70602819,3.26799082 C0.816729327,3.26799082 0.0957574342,2.54701893 0.0957574342,1.65772007 C0.0957574342,0.768421204 0.816729327,0.0474493116 1.70602819,0.0474493116 L7.80809554,0.0474493116 C8.6973944,0.0474493116 9.4183663,0.768421204 9.4183663,1.65772007 C9.4183663,2.54701893 8.6973944,3.26799082 7.80809554,3.26799082 Z"></path>
                        <path d="M21.4273362,3.26799082 L15.3252688,3.26799082 C14.43597,3.26799082 13.7149981,2.54701893 13.7149981,1.65772007 C13.7149981,0.768421204 14.43597,0.0474493116 15.3252688,0.0474493116 L21.4273362,0.0474493116 C22.316635,0.0474493116 23.0376069,0.768421204 23.0376069,1.65772007 C23.0376069,2.54701893 22.316635,3.26799082 21.4273362,3.26799082 Z"></path>
                        <path d="M35.0465768,3.26799082 L28.9445095,3.26799082 C28.0552106,3.26799082 27.3342387,2.54701893 27.3342387,1.65772007 C27.3342387,0.768421204 28.0552106,0.0474493116 28.9445095,0.0474493116 L35.0465768,0.0474493116 C35.9358757,0.0474493116 36.6568476,0.768421204 36.6568476,1.65772007 C36.6568476,2.54701893 35.9358757,3.26799082 35.0465768,3.26799082 Z"></path>
                        <path d="M48.6658175,3.26799082 L42.5637501,3.26799082 C41.6744513,3.26799082 40.9534794,2.54701893 40.9534794,1.65772007 C40.9534794,0.768421204 41.6744513,0.0474493116 42.5637501,0.0474493116 L48.6658175,0.0474493116 C49.5551163,0.0474493116 50.2760882,0.768421204 50.2760882,1.65772007 C50.2760882,2.54701893 49.5551163,3.26799082 48.6658175,3.26799082 Z"></path>
                        <path d="M62.2850581,3.26799082 L56.1829908,3.26799082 C55.2936919,3.26799082 54.57272,2.54701893 54.57272,1.65772007 C54.57272,0.768421204 55.2936919,0.0474493116 56.1829908,0.0474493116 L62.2850581,0.0474493116 C63.174357,0.0474493116 63.8953289,0.768421204 63.8953289,1.65772007 C63.8953289,2.54701893 63.174357,3.26799082 62.2850581,3.26799082 Z"></path>
                        <path d="M75.9042988,3.26799082 L69.8020167,3.26799082 C68.9127178,3.26799082 68.1917459,2.54701893 68.1917459,1.65772007 C68.1917459,0.768421204 68.9127178,0.0474493116 69.8020167,0.0474493116 L75.904084,0.0474493116 C76.7933829,0.0474493116 77.5143548,0.768421204 77.5143548,1.65772007 C77.5145695,2.54701893 76.7935976,3.26799082 75.9042988,3.26799082 Z"></path>
                        <path d="M89.5235394,3.26799082 L83.421472,3.26799082 C82.5321732,3.26799082 81.8112013,2.54701893 81.8112013,1.65772007 C81.8112013,0.768421204 82.5321732,0.0474493116 83.421472,0.0474493116 L89.5235394,0.0474493116 C90.4128383,0.0474493116 91.1338101,0.768421204 91.1338101,1.65772007 C91.1338101,2.54701893 90.4128383,3.26799082 89.5235394,3.26799082 Z"></path>
                    </g>
                    <g transform="translate(0.000000, 8.158705)" id="Path">
                        <path d="M15.021035,3.31028727 L1.70602819,3.31028727 C0.816729327,3.31028727 0.0957574342,2.58931537 0.0957574342,1.70001651 C0.0957574342,0.81071765 0.816729327,0.0897457568 1.70602819,0.0897457568 L15.0212497,0.0897457568 C15.9105486,0.0897457568 16.6315205,0.81071765 16.6315205,1.70001651 C16.6313058,2.58931537 15.9103339,3.31028727 15.021035,3.31028727 Z"></path>
                        <path d="M90.0789755,3.31028727 L76.7637539,3.31028727 C75.8744551,3.31028727 75.1534832,2.58931537 75.1534832,1.70001651 C75.1534832,0.81071765 75.8744551,0.0897457568 76.7637539,0.0897457568 L90.0789755,0.0897457568 C90.9682743,0.0897457568 91.6892462,0.81071765 91.6892462,1.70001651 C91.6892462,2.58931537 90.9682743,3.31028727 90.0789755,3.31028727 Z"></path>
                        <path d="M28.2370639,3.31028727 L22.1349965,3.31028727 C21.2456976,3.31028727 20.5247257,2.58931537 20.5247257,1.70001651 C20.5247257,0.81071765 21.2456976,0.0897457568 22.1349965,0.0897457568 L28.2370639,0.0897457568 C29.1263627,0.0897457568 29.8473346,0.81071765 29.8473346,1.70001651 C29.8473346,2.58931537 29.1263627,3.31028727 28.2370639,3.31028727 Z"></path>
                        <path d="M41.8560898,3.31028727 L35.7540224,3.31028727 C34.8647236,3.31028727 34.1437517,2.58931537 34.1437517,1.70001651 C34.1437517,0.81071765 34.8647236,0.0897457568 35.7540224,0.0897457568 L41.8560898,0.0897457568 C42.7453887,0.0897457568 43.4663605,0.81071765 43.4663605,1.70001651 C43.4663605,2.58931537 42.7453887,3.31028727 41.8560898,3.31028727 Z"></path>
                        <path d="M55.4753304,3.31028727 L49.3732631,3.31028727 C48.4839642,3.31028727 47.7629923,2.58931537 47.7629923,1.70001651 C47.7629923,0.81071765 48.4839642,0.0897457568 49.3732631,0.0897457568 L55.4753304,0.0897457568 C56.3646293,0.0897457568 57.0856012,0.81071765 57.0856012,1.70001651 C57.0856012,2.58931537 56.3646293,3.31028727 55.4753304,3.31028727 Z"></path>
                        <path d="M69.0945711,3.31028727 L62.9925037,3.31028727 C62.1032049,3.31028727 61.382233,2.58931537 61.382233,1.70001651 C61.382233,0.81071765 62.1032049,0.0897457568 62.9925037,0.0897457568 L69.0945711,0.0897457568 C69.9838699,0.0897457568 70.7048418,0.81071765 70.7048418,1.70001651 C70.7048418,2.58931537 69.9838699,3.31028727 69.0945711,3.31028727 Z"></path>
                    </g>
                    <g transform="translate(0.000000, 24.261413)" id="Path">
                        <path d="M15.021035,3.24931168 L1.70602819,3.24931168 C0.816729327,3.24931168 0.0957574342,2.52833979 0.0957574342,1.63904093 C0.0957574342,0.749742064 0.816729327,0.0287701708 1.70602819,0.0287701708 L15.0212497,0.0287701708 C15.9105486,0.0287701708 16.6315205,0.749742064 16.6315205,1.63904093 C16.6313058,2.52833979 15.9103339,3.24931168 15.021035,3.24931168 Z"></path>
                        <path d="M90.0789755,3.24931168 L76.7637539,3.24931168 C75.8744551,3.24931168 75.1534832,2.52833979 75.1534832,1.63904093 C75.1534832,0.749742064 75.8744551,0.0287701708 76.7637539,0.0287701708 L90.0789755,0.0287701708 C90.9682743,0.0287701708 91.6892462,0.749742064 91.6892462,1.63904093 C91.6892462,2.52833979 90.9682743,3.24931168 90.0789755,3.24931168 Z"></path>
                        <path d="M28.2370639,3.24931168 L22.1349965,3.24931168 C21.2456976,3.24931168 20.5247257,2.52833979 20.5247257,1.63904093 C20.5247257,0.749742064 21.2456976,0.0287701708 22.1349965,0.0287701708 L28.2370639,0.0287701708 C29.1263627,0.0287701708 29.8473346,0.749742064 29.8473346,1.63904093 C29.8473346,2.52833979 29.1263627,3.24931168 28.2370639,3.24931168 Z"></path>
                        <path d="M41.8560898,3.24931168 L35.7540224,3.24931168 C34.8647236,3.24931168 34.1437517,2.52833979 34.1437517,1.63904093 C34.1437517,0.749742064 34.8647236,0.0287701708 35.7540224,0.0287701708 L41.8560898,0.0287701708 C42.7453887,0.0287701708 43.4663605,0.749742064 43.4663605,1.63904093 C43.4663605,2.52833979 42.7453887,3.24931168 41.8560898,3.24931168 Z"></path>
                        <path d="M55.4753304,3.24931168 L49.3732631,3.24931168 C48.4839642,3.24931168 47.7629923,2.52833979 47.7629923,1.63904093 C47.7629923,0.749742064 48.4839642,0.0287701708 49.3732631,0.0287701708 L55.4753304,0.0287701708 C56.3646293,0.0287701708 57.0856012,0.749742064 57.0856012,1.63904093 C57.0856012,2.52833979 56.3646293,3.24931168 55.4753304,3.24931168 Z"></path>
                        <path d="M69.0945711,3.24931168 L62.9925037,3.24931168 C62.1032049,3.24931168 61.382233,2.52833979 61.382233,1.63904093 C61.382233,0.749742064 62.1032049,0.0287701708 62.9925037,0.0287701708 L69.0945711,0.0287701708 C69.9838699,0.0287701708 70.7048418,0.749742064 70.7048418,1.63904093 C70.7048418,2.52833979 69.9838699,3.24931168 69.0945711,3.24931168 Z"></path>
                    </g>
                    <g transform="translate(0.000000, 16.317410)" id="Path">
                        <path d="M7.80809554,3.35236901 L1.70602819,3.35236901 C0.816729327,3.35236901 0.0957574342,2.63139712 0.0957574342,1.74209825 C0.0957574342,0.852799392 0.816729327,0.131827499 1.70602819,0.131827499 L7.80809554,0.131827499 C8.6973944,0.131827499 9.4183663,0.852799392 9.4183663,1.74209825 C9.4183663,2.63139712 8.6973944,3.35236901 7.80809554,3.35236901 Z"></path>
                        <path d="M21.4273362,3.35236901 L15.3252688,3.35236901 C14.43597,3.35236901 13.7149981,2.63139712 13.7149981,1.74209825 C13.7149981,0.852799392 14.43597,0.131827499 15.3252688,0.131827499 L21.4273362,0.131827499 C22.316635,0.131827499 23.0376069,0.852799392 23.0376069,1.74209825 C23.0376069,2.63139712 22.316635,3.35236901 21.4273362,3.35236901 Z"></path>
                        <path d="M35.0465768,3.35236901 L28.9445095,3.35236901 C28.0552106,3.35236901 27.3342387,2.63139712 27.3342387,1.74209825 C27.3342387,0.852799392 28.0552106,0.131827499 28.9445095,0.131827499 L35.0465768,0.131827499 C35.9358757,0.131827499 36.6568476,0.852799392 36.6568476,1.74209825 C36.6568476,2.63139712 35.9358757,3.35236901 35.0465768,3.35236901 Z"></path>
                        <path d="M48.6658175,3.35236901 L42.5637501,3.35236901 C41.6744513,3.35236901 40.9534794,2.63139712 40.9534794,1.74209825 C40.9534794,0.852799392 41.6744513,0.131827499 42.5637501,0.131827499 L48.6658175,0.131827499 C49.5551163,0.131827499 50.2760882,0.852799392 50.2760882,1.74209825 C50.2760882,2.63139712 49.5551163,3.35236901 48.6658175,3.35236901 Z"></path>
                        <path d="M62.2850581,3.35236901 L56.1829908,3.35236901 C55.2936919,3.35236901 54.57272,2.63139712 54.57272,1.74209825 C54.57272,0.852799392 55.2936919,0.131827499 56.1829908,0.131827499 L62.2850581,0.131827499 C63.174357,0.131827499 63.8953289,0.852799392 63.8953289,1.74209825 C63.8953289,2.63139712 63.174357,3.35236901 62.2850581,3.35236901 Z"></path>
                        <path d="M75.9042988,3.35236901 L69.8020167,3.35236901 C68.9127178,3.35236901 68.1917459,2.63139712 68.1917459,1.74209825 C68.1917459,0.852799392 68.9127178,0.131827499 69.8020167,0.131827499 L75.904084,0.131827499 C76.7933829,0.131827499 77.5143548,0.852799392 77.5143548,1.74209825 C77.5143548,2.63139712 76.7935976,3.35236901 75.9042988,3.35236901 Z"></path>
                        <path d="M89.5235394,3.35236901 L83.421472,3.35236901 C82.5321732,3.35236901 81.8112013,2.63139712 81.8112013,1.74209825 C81.8112013,0.852799392 82.5321732,0.131827499 83.421472,0.131827499 L89.5235394,0.131827499 C90.4128383,0.131827499 91.1338101,0.852799392 91.1338101,1.74209825 C91.1338101,2.63139712 90.4128383,3.35236901 89.5235394,3.35236901 Z"></path>
                    </g>
                    <g transform="translate(0.000000, 32.849523)" id="Path">
                        <path d="M7.80809554,3.22182973 L1.70602819,3.22182973 C0.816729327,3.22182973 0.0957574342,2.50085783 0.0957574342,1.61155897 C0.0957574342,0.722260109 0.816729327,0.0012882166 1.70602819,0.0012882166 L7.80809554,0.0012882166 C8.6973944,0.0012882166 9.4183663,0.722260109 9.4183663,1.61155897 C9.4183663,2.50085783 8.6973944,3.22182973 7.80809554,3.22182973 Z"></path>
                        <path d="M89.5235394,3.22182973 L83.421472,3.22182973 C82.5321732,3.22182973 81.8112013,2.50085783 81.8112013,1.61155897 C81.8112013,0.722260109 82.5321732,0.0012882166 83.421472,0.0012882166 L89.5235394,0.0012882166 C90.4128383,0.0012882166 91.1338101,0.722260109 91.1338101,1.61155897 C91.1338101,2.50085783 90.4128383,3.22182973 89.5235394,3.22182973 Z"></path>
                        <path d="M75.9042988,3.22182973 L15.3250541,3.22182973 C14.4357553,3.22182973 13.7147834,2.50085783 13.7147834,1.61155897 C13.7147834,0.722260109 14.4357553,0.0012882166 15.3250541,0.0012882166 L75.904084,0.0012882166 C76.7933829,0.0012882166 77.5143548,0.722260109 77.5143548,1.61155897 C77.5145695,2.50085783 76.7935976,3.22182973 75.9042988,3.22182973 Z"></path>
                    </g>
                </g>
                <g id="Group-2" transform="translate(26.402640, 0.000000)">
                    <circle id="Oval" fill="#6797D1" cx="28.162816" cy="32.3059042" r="28.162816"></circle>
                    <circle id="Oval-Copy" fill="#84C8FC" cx="28.5881498" cy="28.162816" r="28.162816"></circle>
                    <g id="Group-3" transform="translate(14.290429, 12.651265)" font-family="Helvetica" font-size="36.4520197" font-weight="normal">
                        <text id="B" fill="#6797D1">
                            <tspan x="2.15582468" y="38.1437822">B</tspan>
                        </text>
                        <text id="B-Copy" fill="#FFFFFF">
                            <tspan x="1.59476859" y="35">B</tspan>
                        </text>
                    </g>
                </g>
            </g>
        </g>
    </g>
</svg>