<?xml version="1.0" encoding="UTF-8"?>
<svg width="109px" height="94px" viewBox="0 0 109 94" version="1.1" xmlns="http://www.w3.org/2000/svg" xmlns:xlink="http://www.w3.org/1999/xlink">
    <!-- Generator: Sketch 52.6 (67491) - http://www.bohemiancoding.com/sketch -->
    <title>NFX</title>
    <desc>Created with Sketch.</desc>
    <defs>
        <linearGradient x1="50.8470185%" y1="0.847018495%" x2="50.8470185%" y2="99.1529815%" id="linearGradient-1">
            <stop stop-color="#BEBEBE" offset="0%"></stop>
            <stop stop-color="#585858" offset="100%"></stop>
        </linearGradient>
    </defs>
    <g id="Page-1" stroke="none" stroke-width="1" fill="none" fill-rule="evenodd">
        <g id="nowfloats.com---Nov-2019---mobile" transform="translate(-106.000000, -2406.000000)">
            <g id="NFX" transform="translate(105.000000, 2406.000000)">
                <polygon id="Fill-1" fill="#FFB900" points="28.3168317 52.9630659 28.3168317 79.8155007 9.34949988 53.0236265 1.08910891 53.0501778 1.21870232 93.9199687 10.0607775 93.8919258 9.97814681 67.9105096 29.7803766 93.8289786 37.4008258 93.8045156 37.2715296 52.9347247"></polygon>
                <path d="M51.5423683,52.8321581 L57.1080335,60.9883985 L38.2061048,61.0490172 L38.2334502,69.7485703 L51.513421,69.686518 L57.6888095,77.8607148 L38.2593095,77.9227671 L38.3095418,93.7449096 L29.3515459,93.7732508 L29.2219525,52.9034599 L51.5423683,52.8321581 Z" id="Combined-Shape" fill="#FFB900"></path>
                <polygon id="Combined-Shape" fill="url(#linearGradient-1)" points="70.577325 65.9824135 61.9843308 52.7563243 51.513421 52.7897371 65.1890926 72.8308392 51.0613302 93.6616163 61.2412493 93.6288002 70.3879878 79.5873797 79.5647469 93.5703279 90.0356567 93.5369151 75.7762203 72.6801833 86.1469626 57.3622158 79.14446 52.7014319"></polygon>
                <g id="Group-31" transform="translate(70.960071, 0.053997)">
                    <path d="M7.83594283,19.1399099 C8.05203092,18.8039922 8.5023383,18.7064388 8.83672496,18.9230252 L25.9602946,30.0124867 C26.2946813,30.2293715 26.3918763,30.6813389 26.1757882,31.0169583 C25.9599974,31.352876 25.50969,31.4504294 25.1750061,31.2335447 L8.05203092,20.1443815 C7.71734702,19.9277951 7.62015196,19.4755293 7.83594283,19.1399099" id="Fill-4" fill="#F05A22"></path>
                    <path d="M19.3223477,25.7139033 C19.4445103,24.7705891 19.032546,23.7968454 18.1833524,23.2467279 C17.3341589,22.6969087 16.2801722,22.7213716 15.4743746,23.2216683 L19.3223477,25.7139033 Z" id="Fill-6" fill="#D7D7D7"></path>
                    <path d="M20.4924038,47.22472 L20.8244126,46.7083136 C21.0405007,46.3726942 21.4905109,46.2748425 21.8251948,46.4917273 C22.1598787,46.7083136 22.2570737,47.1602811 22.0409856,47.4961988 L21.7089768,48.0129035 L20.3711329,50.0940421 C20.0013756,50.6695175 19.3049596,50.9054952 18.6632345,50.6733958 L9.93172983,46.9043154 L9.75041795,47.1859373 C9.31794453,47.8586678 8.41911317,48.0528795 7.74885368,47.6191101 L8.53414218,46.3980522 L9.6770015,44.6200152 L11.6738101,41.513522 L20.4924038,47.22472 Z" id="Fill-8" fill="#4E4E4E"></path>
                    <path d="M1.00568648,45.8461149 L1.79097498,44.6253553 C2.00646861,44.2894375 2.45707322,44.1921825 2.79145989,44.4087689 L5.31555906,46.0433099 C5.65024296,46.2601946 5.74743802,46.7121621 5.53164716,47.0477815 L4.74635865,48.2688394 C4.53056779,48.6047571 4.08026041,48.7023105 3.74587374,48.4857241 L1.22177457,46.8508848 C0.887090671,46.6342984 0.789598381,46.1820326 1.00568648,45.8461149" id="Fill-10" fill="#D7D7D7"></path>
                    <path d="M0.358105827,42.8328195 L4.67570646,36.1168517 L5.06835071,35.5064718 L12.4587419,40.2925536 L12.0663949,40.9032317 L7.74879423,47.6191996 C7.31661804,48.2916317 6.41748945,48.4861418 5.74752719,48.0523724 L0.789984783,44.8417626 C0.119725288,44.4076949 -0.074070362,43.50555 0.358105827,42.8328195" id="Fill-12" fill="#E75E3F"></path>
                    <path d="M14.5384783,43.8061754 L12.0533166,47.6722125 L9.93167039,46.9043154 L9.67783375,47.5725709 C9.57231618,47.8515079 9.58747504,48.1319365 9.72241864,48.3980454 L10.8132623,50.5442196 C10.9820904,50.8765574 10.9636619,51.2455896 10.7621382,51.5588343 L10.460018,52.0435552 L14.7235223,54.8045841 L15.2788847,53.9254731 C15.4322567,53.6871088 15.6501282,53.537348 15.9268518,53.4803672 C16.3138486,53.4001169 16.669636,53.1712991 16.8990996,52.8139017 L18.5002916,50.3237549 L20.293793,47.5334899 L20.5660581,47.1098636 L20.6445275,46.9878473 C20.8716132,46.6349249 20.7696624,46.1599861 20.417739,45.9320633 C20.0661128,45.7041404 19.5923241,45.8070637 19.3655356,46.1599861 L19.2133525,46.3968588 L19.000534,46.2587328 L19.1524199,46.0218601 C19.3792083,45.6686393 19.2772575,45.1934023 18.9256314,44.9657777 C18.573708,44.7378549 18.1002165,44.8404798 17.873428,45.1934023 L17.7212449,45.4299767 L17.5081292,45.2918506 L17.6603122,45.0552762 C17.8873979,44.7023538 17.7851499,44.2271167 17.4335238,43.9991939 C17.0818976,43.7715693 16.6081089,43.8744926 16.3813204,44.2271167 L16.2288401,44.4639894 L16.0160215,44.3258634 L16.1682046,44.0889907 C16.3949931,43.7360683 16.2930423,43.2608312 15.9414162,43.0329083 C15.5894928,42.8052838 15.115704,42.9079088 14.8892128,43.2608312 L14.5384783,43.8061754 Z" id="Fill-18" fill="#F9DAB9"></path>
                    <path d="M8.76363547,37.8996321 L5.06814265,35.5067403 C7.71143209,31.395179 9.28408974,24.6804044 8.05176341,20.1443218 L16.6135482,25.6887543 L25.1750358,31.233485 C20.549205,31.9763226 15.1018233,36.1812607 12.4588311,40.2925238 L8.76363547,37.8996321 Z" id="Fill-20" fill="#E4E4E4"></path>
                    <polygon id="Fill-24" fill="#D3D3D3" points="23.6933939 23.8607302 31.3359066 18.0174363 31.1300661 20.1300878 38.5448791 16.8856013 30.8447584 22.7636041 30.9522326 20.5780867"></polygon>
                    <polygon id="Fill-26" fill="#D3D3D3" points="15.5331379 17.5797462 13.2973543 10.2623484 14.9080577 11.1382405 14.4714231 4.92823749 16.636168 12.0517219 15.1351434 11.3178341"></polygon>
                    <g id="Group-30" transform="translate(21.103514, 0.000000)" fill="#D3D3D3">
                        <polygon id="Fill-28" points="0.165944956 20.7149065 1.52221727 8.13410152 3.30323497 10.2137485 6.86556758 0.244211589 5.55090783 12.8124867 3.57847235 10.8104052"></polygon>
                    </g>
                </g>
            </g>
        </g>
    </g>
</svg>