<?xml version="1.0" encoding="UTF-8"?>
<svg width="100px" height="100px" viewBox="0 0 100 100" version="1.1" xmlns="http://www.w3.org/2000/svg" xmlns:xlink="http://www.w3.org/1999/xlink">
    <!-- Generator: Sketch 52.6 (67491) - http://www.bohemiancoding.com/sketch -->
    <title>Rocket Singh</title>
    <desc>Created with Sketch.</desc>
    <defs>
        <linearGradient x1="0%" y1="23.2742708%" x2="100%" y2="72.1023958%" id="linearGradient-1">
            <stop stop-color="#FFB900" offset="0%"></stop>
            <stop stop-color="#EDC717" offset="100%"></stop>
        </linearGradient>
    </defs>
    <g id="Page-1" stroke="none" stroke-width="1" fill="none" fill-rule="evenodd">
        <g id="nowfloats.com---Nov-2019---mobile" transform="translate(-110.000000, -2698.000000)">
            <g id="Rocket-Singh" transform="translate(110.000000, 2698.000000)">
                <path d="M99.7368897,49.9929331 C99.7368897,77.6033354 77.410094,99.9862622 49.8684448,99.9862622 C22.3267956,99.9862622 2.13162821e-13,77.6033354 2.13162821e-13,49.9929331 C2.13162821e-13,22.3825307 22.3267956,-1.27897692e-13 49.8684448,-1.27897692e-13 C77.410094,-1.27897692e-13 99.7368897,22.3825307 99.7368897,49.9929331 Z" id="Fill-1" fill="url(#linearGradient-1)"></path>
                <g id="Bot" transform="translate(21.977785, 8.241719)">
                    <path d="M52.7533702,35.5372995 L52.7533702,42.8085524 L50.8746954,43.5028822 L50.8746954,34.8433658 L52.7533702,35.5372995 Z M47.941118,49.3973579 C47.941118,50.4097406 47.1228771,51.2304202 46.1130153,51.2304202 L9.72914906,51.2304202 C8.71928727,51.2304202 7.90065127,50.4097406 7.90065127,49.3973579 L7.90065127,28.948494 C7.90065127,27.9365073 8.71928727,27.1158277 9.72914906,27.1158277 L46.1130153,27.1158277 C47.1228771,27.1158277 47.941118,27.9365073 47.941118,28.948494 L47.941118,49.3973579 Z M17.1304561,67.9581042 L38.6508637,67.9581042 L38.6508637,55.2403431 L17.1304561,55.2403431 L17.1304561,67.9581042 Z M25.5562435,15.3011311 C25.5562435,14.0087191 26.6012687,12.9606891 27.8904624,12.9606891 C29.1800511,12.9606891 30.2250763,14.0087191 30.2250763,15.3011311 C30.2250763,16.593543 29.1800511,17.641573 27.8904624,17.641573 C26.6012687,17.641573 25.5562435,16.593543 25.5562435,15.3011311 L25.5562435,15.3011311 Z M4.96707389,43.5250627 L3.02794961,42.8085524 L3.02794961,35.5372995 L4.96707389,34.8203931 L4.96707389,43.5250627 Z M50.8746954,28.948494 C50.8746954,26.3165365 48.7384189,24.1749272 46.1130153,24.1749272 L31.7714766,24.1749272 C31.0859875,23.5475351 30.2511526,23.0849126 29.3250508,22.8460758 L29.3574486,22.8460758 L29.3574486,20.3697781 C31.5498285,19.7308997 33.1586537,17.7025695 33.1586537,15.3011311 C33.1586537,12.3891444 30.7955929,10.0197886 27.8904624,10.0197886 C24.9857269,10.0197886 22.6226661,12.3891444 22.6226661,15.3011311 C22.6226661,17.7025695 24.2314913,19.7308997 26.4238712,20.3697781 L26.4238712,22.8460758 L26.4558739,22.8460758 C25.5301672,23.0849126 24.6949373,23.5475351 24.0098432,24.1749272 L9.72914906,24.1749272 C7.10335037,24.1749272 4.96707389,26.3165365 4.96707389,28.948494 L4.96707389,31.6862051 L2.0129516,32.7782001 L0.0943722386,33.4871848 L0.0943722386,35.5372995 L0.0943722386,42.8085524 L0.0943722386,44.858667 L2.0129516,45.5680479 L4.96707389,46.6596468 L4.96707389,49.3973579 C4.96707389,52.0297114 7.10335037,54.1709247 9.72914906,54.1709247 L14.1968788,54.1709247 L14.1968788,55.2407392 L14.1968788,56.6765324 C9.95632845,58.2691736 6.66123952,61.9329218 5.6687619,66.5476601 C3.36694078,67.2055505 1.66724383,69.4137014 1.66724383,72.036549 L5.37876246,72.036549 C5.37876246,70.9485148 6.14603617,70.0632741 7.08912697,70.0632741 C8.03221777,70.0632741 8.79949148,70.9485148 8.79949148,72.036549 L12.5110101,72.036549 C12.5110101,69.4766783 10.8934928,67.3069472 8.67543177,66.5928134 C9.48972173,63.6202263 11.541448,61.2124506 14.1968788,59.8828071 L14.1968788,67.9581042 L14.1968788,70.8990047 L17.1304561,70.8990047 L38.6508637,70.8990047 L41.584046,70.8990047 L41.584046,67.9581042 L41.584046,59.8847875 C44.2382915,61.2152232 46.2896226,63.6218107 47.1047028,66.5928134 C44.8874319,67.3073433 43.2703097,69.4766783 43.2703097,72.036549 L46.9818283,72.036549 C46.9818283,70.9485148 47.749102,70.0632741 48.6921928,70.0632741 C49.6348886,70.0632741 50.4025574,70.9485148 50.4025574,72.036549 L54.1136809,72.036549 C54.1136809,69.4133053 52.4135888,67.2047583 50.1113726,66.5472641 C49.1169195,61.9345061 45.823411,58.2715501 41.584046,56.6781167 L41.584046,55.2407392 L41.584046,54.1709247 L46.1130153,54.1709247 C48.7384189,54.1709247 50.8746954,52.0297114 50.8746954,49.3973579 L50.8746954,46.6370702 L53.7679731,45.5680479 L55.6869476,44.858667 L55.6869476,42.8085524 L55.6869476,35.5372995 L55.6869476,33.4871848 L53.7679731,32.7782001 L50.8746954,31.7087817 L50.8746954,28.948494 Z" id="Fill-3" fill="#323232"></path>
                    <path d="M13.9410945,33.2242267 L41.8395141,33.2242267 L41.8395141,41.5724235 C41.8395141,43.5294592 40.251629,45.1213083 38.2998616,45.1213083 L17.4815372,45.1213083 C15.5297699,45.1213083 13.9410945,43.5294592 13.9410945,41.5724235 L13.9410945,33.2242267 Z M12.1528964,41.5724235 C12.1528964,44.5180771 14.5432187,46.9143664 17.4815372,46.9143664 L38.2998616,46.9143664 C41.2377851,46.9143664 43.6281074,44.5180771 43.6281074,41.5724235 L43.6281074,31.4311686 L12.1528964,31.4311686 L12.1528964,41.5724235 Z" id="Fill-5" fill="#323232"></path>
                    <path d="M18.577095,42.3234721 L19.3838782,42.3234721 C20.4557698,42.3234721 21.3277436,41.4489255 21.3277436,40.3747542 L21.3277436,37.8695426 L20.2234542,37.8695426 L19.0563447,37.8695426 L19.0563447,36.3402743 L19.0563447,35.2332282 L18.577095,35.2332282 C17.5052034,35.2332282 16.6332296,36.1077748 16.6332296,37.1823422 L16.6332296,40.3747542 C16.6332296,41.4489255 17.5052034,42.3234721 18.577095,42.3234721" id="Fill-7" fill="#323232"></path>
                    <path d="M36.5081867,42.5684877 L37.2039483,42.5684877 C38.2758399,42.5684877 39.1478137,41.6939412 39.1478137,40.6197698 L39.1478137,37.8693841 L38.0435243,37.8693841 L37.4196699,37.8693841 L37.4196699,36.3840808 L37.4196699,35.2552503 C37.3477627,35.2469326 37.2778309,35.2330698 37.2039483,35.2330698 L36.5081867,35.2330698 C35.436295,35.2330698 34.5643213,36.1076164 34.5643213,37.1821838 L34.5643213,40.6197698 C34.5643213,41.6939412 35.436295,42.5684877 36.5081867,42.5684877" id="Fill-9" fill="#323232"></path>
                    <path d="M37.6146105,4.67331053 L34.3911455,10.2697304 C35.3227205,10.7350935 36.2226309,11.2550558 37.0832771,11.8289825 L40.3067421,6.23192774 L37.6146105,4.67331053 Z" id="Fill-11" fill="#FFFFFF" transform="translate(37.348944, 8.251146) rotate(20.000000) translate(-37.348944, -8.251146) "></path>
                    <path d="M29.2574527,0.0749194968 L26.1486138,0.0749194968 L26.1486138,7.1651634 C26.6634816,7.13035953 27.1802493,7.1066929 27.7027166,7.1066929 C28.2258172,7.1066929 28.7432182,7.13035953 29.2574527,7.1651634 L29.2574527,0.0749194968 Z" id="Fill-13" fill="#FFFFFF"></path>
                    <path d="M17.791646,4.67331053 L15.0995144,6.23192774 L18.3229794,11.8289825 C19.1836256,11.2550558 20.0829027,10.7350935 21.015111,10.2697304 L17.791646,4.67331053 Z" id="Fill-15" fill="#FFFFFF" transform="translate(18.057313, 8.251146) rotate(-20.000000) translate(-18.057313, -8.251146) "></path>
                    <path d="M20.3393749,63.0920129 L29.4352427,63.0920129 L29.4352427,60.1067512 L20.3393749,60.1067512 L20.3393749,63.0920129 Z M18.5511768,64.8846749 L31.223836,64.8846749 L31.223836,58.3140892 L18.5511768,58.3140892 L18.5511768,64.8846749 Z" id="Fill-17" fill="#323232"></path>
                    <path d="M35.1990407,60.6476393 C35.722146,60.6476393 36.1480579,61.0746145 36.1480579,61.5994217 C36.1480579,62.1242288 35.722146,62.551204 35.1990407,62.551204 C34.6755404,62.551204 34.2496284,62.1242288 34.2496284,61.5994217 C34.2496284,61.0746145 34.6755404,60.6476393 35.1990407,60.6476393 M35.1990407,64.3442622 C36.7083021,64.3442622 37.9366512,63.1132428 37.9366512,61.5994217 C37.9366512,60.0859966 36.7083021,58.8545811 35.1990407,58.8545811 C33.6893843,58.8545811 32.4610352,60.0859966 32.4610352,61.5994217 C32.4610352,63.1132428 33.6893843,64.3442622 35.1990407,64.3442622" id="Fill-19" fill="#323232"></path>
                </g>
            </g>
        </g>
    </g>
</svg>